<svg class="svg-icon" style="width: 1em;height: 1em;vertical-align: middle;fill: currentColor;overflow: hidden;" viewBox="0 0 1024 1024" version="1.1" xmlns="http://www.w3.org/2000/svg"><path d="M455.066958 960.022578c-15.461511 0-28.105271-12.535384-28.10527-28.03302 0-15.461511 12.643759-28.105271 28.10527-28.105271h28.033021v-57.366542c-138.503351-12.463134-255.765187-116.539335-280.510831-251.141184h56.029916c25.540394 112.348832 132.362097 196.339519 252.47781 196.339519 120.187963 0 226.937416-83.990687 252.47781-196.339519h56.138291c-24.745643 134.601849-141.971354 238.67805-280.51083 251.141184v57.366542h28.03302c15.497636 0 28.033021 12.643759 28.033021 28.105271a28.033021 28.033021 0 0 1-28.033021 28.03302h-112.168207z m56.029916-224.480914c-108.447329 0-196.339519-87.892189-196.339518-196.339519V258.727439c0-108.447329 87.892189-196.447894 196.339518-196.447893 108.447329 0 196.411769 88.000564 196.411769 196.447893v280.510831c0.036125 108.411204-87.964439 196.303394-196.411769 196.303394z m140.309603-476.814225c0-77.488182-62.821421-140.309603-140.309603-140.309602-77.379807 0-140.201228 62.821421-140.201227 140.309602v280.510831c0 77.488182 62.821421 140.273478 140.201227 140.273478 77.488182 0 140.309603-62.785296 140.309603-140.273478V258.727439z" fill="#231815" /></svg>